<svg viewBox="0 0 24 24" xmlns="http://www.w3.org/2000/svg"><path d="M8.964 4l6.073.011c3.846 0 6.963 3.13 6.963 6.99 0 3.617-2.74 6.594-6.251 6.952l-.243.02-3.2 3.683-1.509-1.312 3.784-4.355h.456c2.74 0 4.963-2.232 4.963-4.988 0-2.684-2.108-4.872-4.75-4.985l-.215-.005L8.962 6C6.222 6 4 8.232 4 10.988c0 2.687 2.11 4.883 4.747 4.996l.215.005h1.162v2H8.962C5.117 17.989 2 14.849 2 10.988c0-3.779 2.987-6.857 6.724-6.984L8.964 4zM12 10a1 1 0 110 1.998 1 1 0 010-1.999zm-4 0a1 1 0 110 1.998 1 1 0 010-1.999zm8 0a1 1 0 110 1.998 1 1 0 010-1.999z" fill="#FFF" fill-rule="evenodd"/></svg>